PathFileType	4	(X/Y/Z)	2_2_50_p0_0-343_filt_butterworth.trc
DataRate	CameraRate	NumFrames	NumMarkers	Units	OrigDataRate	OrigDataStartFrame	OrigNumFrames
59.0	59.0	6	27	m	59.0	300	343
Frame#	Time	RHip			RKnee			RAnkle			RBigToe			RSmallToe			RHeel			LHip			LKnee			LAnkle			LBigToe			LSmallToe			LHeel			Neck			Head			Nose			RShoulder			RElbow			RWrist			RThumb			RIndex			RPinky			LShoulder			LElbow			LWrist			LThumb			LIndex			LPinky			
		X1	Y1	Z1	X2	Y2	Z2	X3	Y3	Z3	X4	Y4	Z4	X5	Y5	Z5	X6	Y6	Z6	X7	Y7	Z7	X8	Y8	Z8	X9	Y9	Z9	X10	Y10	Z10	X11	Y11	Z11	X12	Y12	Z12	X13	Y13	Z13	X14	Y14	Z14	X15	Y15	Z15	X16	Y16	Z16	X17	Y17	Z17	X18	Y18	Z18	X19	Y19	Z19	X20	Y20	Z20	X21	Y21	Z21	X22	Y22	Z22	X23	Y23	Z23	X24	Y24	Z24	X25	Y25	Z25	X26	Y26	Z26	X27	Y27	Z27	
300	5.084745762711864	0.3187127207389442	0.5481538821705241	1.0215793528109185	0.32294890986689784	0.6940887757028298	1.4259446948914452	0.2892174670539187	0.9023321021754089	1.8269178980663603	0.29716410856672926	0.645204041644793	1.8725525747561034	0.3398816974195421	0.6973262577692952	1.8802560801319366	0.27924204626507027	0.9316121738889765	1.8781119874314847	0.11752742951714629	0.5579416717854498	1.0422380063915015	0.12605801150704293	0.6875276702022377	1.4223215700294984	0.13536503401756741	0.8846263106807928	1.8298929021608537	0.1230190149545054	0.6833680846837772	1.9035162750781647	0.08679389800837531	0.701716232275656	1.8722404193030724	0.14252525287063075	0.9331266801600152	1.8684489307715904	0.2139985563279117	0.3762219668350494	0.43260259717222976	0.21480462302898773	0.20775559803193422	0.2040478465513557	0.2183720688564842	0.19118991770731303	0.36287053169308875	0.39305774663679927	0.41039425238114374	0.4876306109990639	0.4363038488599011	0.48410458841086923	0.7452325551084606	0.34137619057107566	0.3475393106658999	0.9499295656730005	0.2427314391363976	0.3219376396262743	1.0221035610553237	0.24559531280376856	0.33615760776666187	1.043468845906207	0.26512137121487983	0.3775923927993401	1.057635612101713	0.05500805798060626	0.434045555082637	0.5120586627274969	-0.008100393722545443	0.472516612208962	0.7702209356683531	0.043734642751738106	0.39016635450545095	0.9810020723849125	0.1220325728175715	0.328073509936313	1.0295699885197087	0.12448309070338646	0.31551225950822015	1.0595277328777786	0.11803887297505958	0.32810285946555434	1.0776017416600099
301	5.101694915254237	0.31769877965783583	0.5484662906402226	1.0256606073500312	0.3230357374665452	0.6939181057007662	1.4254337278465299	0.2892160237046004	0.9023223561786794	1.8269109739284746	0.29709779480299614	0.6448919418552773	1.872368254876249	0.3404185254149325	0.6973780384229	1.880181196919097	0.27913351028693284	0.9313279399986278	1.8776222134847862	0.11469917984238599	0.5568838727693319	1.0452722557371033	0.126451840109462	0.6890980875541511	1.424618008609447	0.13527362267654888	0.8834956082220435	1.8285350932768423	0.12319336507801687	0.6852883594345809	1.9043370966963615	0.08694285295875051	0.7014180277762222	1.8733549703390442	0.1425256269957377	0.9329598092625737	1.8685926869647	0.21401881167551884	0.3761532353509113	0.43260945353304997	0.21473473532000878	0.20777291159762565	0.20404963129998366	0.21935316342736846	0.19172983354191186	0.36282301677797185	0.39356598143666544	0.41060158885710457	0.4886067172215229	0.4375058909741745	0.4807415965818166	0.7458698254404119	0.3409577998829704	0.3473121754658467	0.9510843510369066	0.24347785822780688	0.32033078447400287	1.0208144657395297	0.23964294276433268	0.34372855421213844	1.0439751898340541	0.25589960142035634	0.3922181140732372	1.0562043444559472	0.05654570071464616	0.4307262918933902	0.512586761873926	-0.010744648417409231	0.4741168562040958	0.7694485899750394	0.04619894832836144	0.3867025432184278	0.9792013065802745	0.12572233733675156	0.3252364965333764	1.0230168371202146	0.12778431100138563	0.3134581975737253	1.0551151328705066	0.12337468608713209	0.3204489614486323	1.074681279125514
302	5.11864406779661	0.3166151485385335	0.548746409177765	1.0288262572804396	0.3232471664433814	0.6935075953230276	1.4242603142796235	0.2892141328415203	0.9022925758660725	1.826895385186039	0.29706783561171013	0.64473808344336	1.8722785361772107	0.3415786019098786	0.6981031279851807	1.8803287393673132	0.27913864637852276	0.9314118151346734	1.8777348341220428	0.11334736558737864	0.5561947049768958	1.0471002155403688	0.1269104719132942	0.6903639750573187	1.4267035243012574	0.13538872188694157	0.8828164190209544	1.8268562166048312	0.12328338662740877	0.6892590425142398	1.904039144031043	0.08716950450428679	0.7009668823469943	1.8747875414123114	0.14253914286404834	0.9328933631552893	1.8686380688610826	0.21405176751296728	0.3761471327399937	0.4326155896505961	0.2145187441462121	0.207894348493808	0.20402034011016518	0.2197407023782968	0.19200133025619248	0.3627463048480005	0.3947038146058892	0.41096293395466554	0.48855725396638094	0.4399406486636257	0.47470465807285317	0.7461487635756485	0.3408138298370997	0.3470281882874653	0.9515502442810768	0.24407119655733306	0.319304339213478	1.0176922067190912	0.23276242010087025	0.35269967976166916	1.0436754375571073	0.24842214498387277	0.4030221707627185	1.0549413734170574	0.058602671719085835	0.4264078399748087	0.5132482764908528	-0.01295152616901447	0.47448164059714615	0.7684256275149752	0.04829937099945556	0.3845161653341633	0.9778367744492991	0.12810423737199994	0.32365354028043014	1.0158879939204337	0.1307176622116334	0.31250874898771	1.0523295837038935	0.12712700993105863	0.3198467192852186	1.0721012958922627
303	5.135593220338983	0.31591925961904904	0.549010217781003	1.0306955064277379	0.32352996161983394	0.6929618285176755	1.4227572361971406	0.2892128244052846	0.9022421706380415	1.8268748809570388	0.2970754561397027	0.6447016107609772	1.8722623446514546	0.3428703275623575	0.6998402129384377	1.8808159656467258	0.2791702387513704	0.9315434063889896	1.877956505918105	0.11347858035251418	0.5557756274741886	1.0482562186114253	0.1273983581537606	0.6911082227417524	1.428195036194995	0.13551538602954816	0.8826272567043139	1.8256245698947966	0.12299439631224832	0.6941724859336669	1.903529301213255	0.08733343294531672	0.700627312933326	1.875862737914595	0.14255966010619509	0.9329141815744117	1.8685967515048225	0.21408146462144442	0.3761807255648928	0.43262321449852303	0.21430939083661077	0.20817416122811785	0.20393555107021852	0.2197624189783764	0.19205803929107856	0.36271373958564784	0.3961802297189627	0.41129444759165285	0.487499113495124	0.4434596194221243	0.4676146817246448	0.7460836275092824	0.34125647589102737	0.3470816500835532	0.9511259201301069	0.2427411284600226	0.31949169046159054	1.012983706444362	0.2251573922804773	0.36232011603592174	1.043150825123248	0.24215262391569137	0.4091731373796102	1.0538634060099767	0.06022327250715287	0.4231485000191026	0.5138898877898231	-0.014462636086714862	0.4728196134715439	0.7670936498812192	0.051265325807539064	0.38230396435690345	0.9767989076641734	0.12897843741588133	0.3237302485574962	1.0077018803337143	0.1348592383737011	0.3143002305183128	1.0506532050249304	0.13212684540176756	0.32496626902663506	1.0690390513727799
304	5.152542372881356	0.31570085008710774	0.5491755771050105	1.0316344488281832	0.32375525934436633	0.6925188885653951	1.421628310857332	0.2892122502242049	0.9021959081811024	1.826858363187982	0.29709288807328876	0.64474799490019	1.8722800813636984	0.3440633242366103	0.7034873716971871	1.8818878832844157	0.27919035222847466	0.9316184751559035	1.8781200320969196	0.11460882816814548	0.5557305831395318	1.049162918659303	0.12783056063587603	0.6916704570908812	1.4291936827563199	0.1355706653314066	0.882672924452531	1.8251584367485978	0.12253809647994188	0.6977408653212478	1.9032827843387272	0.08738339287715717	0.7005079990581935	1.876267261658026	0.14257620500079685	0.9329508458904955	1.8685266250979495	0.21410178148482945	0.3762121073425328	0.4326335961884312	0.21458112597713974	0.2085292270360761	0.2038134469843878	0.2197109368225894	0.19204642931730317	0.36271954913129517	0.39730467782559187	0.41139204524095513	0.48605201096534734	0.4472422644214926	0.46175575848776795	0.7452781933881442	0.34224142065536944	0.34792253665811723	0.9500437432697332	0.23875498656695704	0.31985174255166227	1.0073549944143803	0.2186988557829412	0.3676733352780394	1.0427656371941998	0.23697256589966825	0.4081556022183086	1.0525022921400233	0.060957266889470625	0.421721573767739	0.5142336008446494	-0.015252939941125553	0.469279058191012	0.7658862370352508	0.055467856436921044	0.38014649827017044	0.9755633475607886	0.12961227234862038	0.32514961746303334	0.9987468335248262	0.14208581870849077	0.31884501248896613	1.0490805761667943	0.1400065155612699	0.33593717063981754	1.0654777185347413
305	5.169491525423729	0.3156540498164782	0.5492337809250643	1.032682882422424	0.3238566682294059	0.692287685987384	1.4211656403702841	0.2892165278386493	0.9021817170655976	1.8268664831896486	0.29710169520107277	0.6448610991774542	1.8723108554933159	0.345347252867477	0.7085942927457448	1.8833896827685532	0.2791974240176826	0.9316682571298494	1.8782588659228199	0.11630574019501116	0.5557646951993233	1.0503091488478542	0.1282385971053095	0.6927766732952316	1.4303051996395877	0.13557975611250375	0.8827480715934399	1.825157805937094	0.12254502707656528	0.6990983456564005	1.903280358975398	0.08736904293445079	0.7005360992994903	1.8762452965913936	0.1425816417285548	0.9329686455283902	1.868455684987455	0.21411179696677762	0.3762199414502621	0.4326455790311975	0.21567754219579438	0.20879329356058962	0.20370494601516126	0.21967287953914674	0.192058744834401	0.36273950158888746	0.39775186560477604	0.4112943879589963	0.484997217163219	0.45026536510821835	0.4586329731199297	0.743577166754821	0.34301346593089627	0.3490056919768208	0.9482557943479519	0.23329784388969166	0.3187613302911956	1.00119604339843	0.21511031001619246	0.3641427369243822	1.041800821512999	0.23149358637767198	0.4004084131769232	1.0501850322824187	0.060960480961105575	0.4217710058154015	0.5142985429217457	-0.015488898395888908	0.46531961913473735	0.7653719646243257	0.0606699340095248	0.37914505630351675	0.9741265094004301	0.13230931750515357	0.32638591862450483	0.990259337908745	0.15382591929384992	0.3248730953629114	1.0462407801784879	0.15074936155902285	0.35309013025780694	1.0620020478448209
